<svg width="53" height="53" viewBox="0 0 53 53" fill="none" xmlns="http://www.w3.org/2000/svg">
<path fill-rule="evenodd" clip-rule="evenodd" d="M4 0C1.79086 0 0 1.79086 0 4V49C0 51.2091 1.79086 53 4 53H49C51.2091 53 53 51.2091 53 49V4C53 1.79086 51.2091 0 49 0H4ZM19.8002 27.2088C19.8817 28.4347 20.2365 29.584 20.8027 30.5939C21.0686 31.0675 21.38 31.5106 21.7335 31.9162C23.1496 33.548 25.2173 34.5768 27.5188 34.5768H28.4271C28.6079 34.5768 28.695 34.7994 28.5605 34.9225C28.2263 35.2284 27.8787 35.5195 27.5188 35.795C25.3204 37.4811 22.6676 38.5802 19.7821 38.8703C19.278 38.9213 18.7671 38.9474 18.2497 38.9474C18.1069 38.9474 17.9632 38.9457 17.8209 38.9408C17.7777 38.9394 17.7362 38.9234 17.7027 38.8954C17.478 38.7078 17.2582 38.5115 17.0441 38.3094C15.8928 37.2273 14.9032 35.9695 14.1165 34.5757C12.9918 32.5882 12.2782 30.3264 12.0931 27.914C12.0621 27.5015 12.0455 27.0856 12.0455 26.6641L12.0457 26.5831C12.0334 24.215 12.5491 21.8604 13.5709 19.7023C15.0461 16.5867 17.4932 14.0558 20.5304 12.5045C22.6982 11.3973 25.0795 10.8336 27.4782 10.841L27.5188 10.8409C27.6839 10.8409 27.8501 10.8432 28.0141 10.85C30.6469 10.9338 33.1135 11.6919 35.2555 12.9588L35.3299 13.0034C35.3738 13.0298 35.4036 13.0702 35.4177 13.1155C36.3596 13.6976 37.2407 14.3831 38.0443 15.1622C38.5793 15.6809 38.5224 16.5463 37.9682 17.0437L34.1266 20.4915C33.5724 20.9889 32.7329 20.9234 32.1545 20.4553C31.2041 19.6861 30.0807 19.156 28.8758 18.9183C27.4775 18.6424 26.0363 18.7735 24.7156 19.2888C23.1735 19.9016 21.8713 21.006 20.9927 22.4136C20.8479 22.6499 20.7153 22.8948 20.5956 23.1476C20.0628 24.2728 19.809 25.5063 19.847 26.7415C19.8518 26.9002 19.8356 27.0577 19.8002 27.2088ZM40.9461 35.2236C40.9897 35.3743 40.8568 35.5166 40.7068 35.4799L40.2859 35.3771L40.2856 35.377C40.2806 35.3758 39.8103 35.2608 39.6454 35.2203C39.6104 35.2117 39.6114 35.2154 39.6205 35.2473L39.6222 35.2532C39.7297 35.6343 38.0165 37.6169 37.7253 37.9539L37.6962 37.9876C33.5403 42.8301 26.796 42.9205 21.2589 40.9632C21.2368 40.9553 21.2148 40.9473 21.1938 40.9406C20.7066 40.7677 20.2469 40.5925 19.828 40.4252C19.0297 40.1078 18.383 39.8197 17.9895 39.6276C17.8287 39.5492 17.8587 39.485 18.0317 39.5286C18.3562 39.6104 18.6938 39.6692 19.0255 39.711C19.3011 39.746 19.5723 39.7686 19.828 39.7833C20.7381 39.8362 21.4634 39.7871 21.5276 39.7825L21.5374 39.7821C22.6756 39.7556 23.8302 39.5579 24.9683 39.1753C25.8855 38.8657 26.7409 38.4521 27.5247 37.9503C28.0108 37.6418 28.4694 37.2971 28.8994 36.9241C29.1286 36.7252 29.348 36.5196 29.5608 36.3048C30.1252 35.7353 30.6312 35.1103 31.0688 34.4436C31.2846 34.1156 31.485 33.778 31.6677 33.4308C31.7051 33.3598 31.666 33.2725 31.5891 33.2535L30.6189 33.0168C30.4691 32.9803 30.4139 32.7927 30.5193 32.6784L34.0818 28.8154L34.0829 28.8142C34.0997 28.796 34.8773 27.9541 35.0906 27.7225L35.1986 27.6051L37.6442 24.9526C37.7503 24.8376 37.939 24.8831 37.983 25.0344L40.2991 32.9991C40.3003 33.0032 40.3039 33.006 40.3081 33.0069C40.3137 33.0081 40.3171 33.0143 40.3156 33.02L40.3135 33.0279C40.3126 33.0315 40.3123 33.0352 40.3124 33.0388C40.3125 33.041 40.3127 33.0432 40.3131 33.0454L40.3141 33.0494L40.7189 34.4424L40.7663 34.6018L40.9461 35.2236Z" fill="#35BBF4"/>
</svg>
